<svg xmlns="http://www.w3.org/2000/svg" width="900" height="596" viewBox="0 0 900 596" role="img">
<rect width="900" height="596" fill="#fcfcfb"/>
<text x="40.0" y="34.0" font-family='system-ui, -apple-system, "Segoe UI", sans-serif' font-size="19" fill="#0b0b0b" text-anchor="start" font-weight="600">Encode time</text>
<text x="40.0" y="56.0" font-family='system-ui, -apple-system, "Segoe UI", sans-serif' font-size="13" fill="#52514e" text-anchor="start">Geometric mean of each engine's ms/op over the test images, at quality 90. Each panel has its own scale.</text>
<circle cx="45.0" cy="80.0" r="5.0" fill="#2a78d6"/>
<text x="56.0" y="84.0" font-family='system-ui, -apple-system, "Segoe UI", sans-serif' font-size="12" fill="#52514e" text-anchor="start">webp-go-pure</text>
<circle cx="169.5" cy="80.0" r="5.0" fill="#898781"/>
<text x="180.5" y="84.0" font-family='system-ui, -apple-system, "Segoe UI", sans-serif' font-size="12" fill="#52514e" text-anchor="start">libwebp</text>
<circle cx="259.6" cy="80.0" r="5.0" fill="#1baf7a"/>
<text x="270.6" y="84.0" font-family='system-ui, -apple-system, "Segoe UI", sans-serif' font-size="12" fill="#52514e" text-anchor="start">wasm</text>
<circle cx="329.1" cy="80.0" r="5.0" fill="#c2456f"/>
<text x="340.1" y="84.0" font-family='system-ui, -apple-system, "Segoe UI", sans-serif' font-size="12" fill="#52514e" text-anchor="start">nativewebp</text>
<text x="240.0" y="128.0" font-family='system-ui, -apple-system, "Segoe UI", sans-serif' font-size="14" fill="#0b0b0b" text-anchor="middle" font-weight="600">lossless</text>
<text x="500.0" y="128.0" font-family='system-ui, -apple-system, "Segoe UI", sans-serif' font-size="14" fill="#0b0b0b" text-anchor="middle" font-weight="600">lossy-fast</text>
<text x="760.0" y="128.0" font-family='system-ui, -apple-system, "Segoe UI", sans-serif' font-size="14" fill="#0b0b0b" text-anchor="middle" font-weight="600">lossy-slow</text>
<text x="116.0" y="242.0" font-family='system-ui, -apple-system, "Segoe UI", sans-serif' font-size="12" fill="#52514e" text-anchor="end" font-weight="600">arm64</text>
<text x="116.0" y="258.0" font-family='system-ui, -apple-system, "Segoe UI", sans-serif' font-size="11" fill="#898781" text-anchor="end">Apple M4 Pro</text>
<line x1="134.0" y1="312.0" x2="346.0" y2="312.0" stroke="#c3c2b7" stroke-width="1.0"/>
<path d="M 189.0 312.0 L 189.0 216.7 Q 189.0 212.7 193.0 212.7 L 209.0 212.7 Q 213.0 212.7 213.0 216.7 L 213.0 312.0 Z" fill="#2a78d6"/>
<path d="M 215.0 312.0 L 215.0 215.2 Q 215.0 211.2 219.0 211.2 L 235.0 211.2 Q 239.0 211.2 239.0 215.2 L 239.0 312.0 Z" fill="#898781"/>
<linearGradient id="fade1" gradientUnits="userSpaceOnUse" x1="0" y1="172.0" x2="0" y2="236.0"><stop offset="0" stop-color="#1baf7a" stop-opacity="0"/><stop offset="1" stop-color="#1baf7a" stop-opacity="1"/></linearGradient>
<path d="M 241.0 312.0 L 241.0 176.0 Q 241.0 172.0 245.0 172.0 L 261.0 172.0 Q 265.0 172.0 265.0 176.0 L 265.0 312.0 Z" fill="url(#fade1)"/>
<path d="M 253.0 152.0 l 7 10 l -14 0 z" fill="#1baf7a"/>
<path d="M 267.0 312.0 L 267.0 238.4 Q 267.0 234.4 271.0 234.4 L 287.0 234.4 Q 291.0 234.4 291.0 238.4 L 291.0 312.0 Z" fill="#c2456f"/>
<text x="201.0" y="205.7" font-family='system-ui, -apple-system, "Segoe UI", sans-serif' font-size="11" fill="#52514e" text-anchor="middle" stroke="#fcfcfb" stroke-width="3" paint-order="stroke" style="font-variant-numeric:tabular-nums">1.2 s</text>
<text x="227.0" y="191.7" font-family='system-ui, -apple-system, "Segoe UI", sans-serif' font-size="11" fill="#52514e" text-anchor="middle" stroke="#fcfcfb" stroke-width="3" paint-order="stroke" style="font-variant-numeric:tabular-nums">1.2 s</text>
<text x="253.0" y="144.0" font-family='system-ui, -apple-system, "Segoe UI", sans-serif' font-size="11" fill="#52514e" text-anchor="middle" stroke="#fcfcfb" stroke-width="3" paint-order="stroke" style="font-variant-numeric:tabular-nums">2.6 s</text>
<text x="279.0" y="227.4" font-family='system-ui, -apple-system, "Segoe UI", sans-serif' font-size="11" fill="#52514e" text-anchor="middle" stroke="#fcfcfb" stroke-width="3" paint-order="stroke" style="font-variant-numeric:tabular-nums">917 ms</text>
<line x1="394.0" y1="312.0" x2="606.0" y2="312.0" stroke="#c3c2b7" stroke-width="1.0"/>
<path d="M 449.0 312.0 L 449.0 215.2 Q 449.0 211.2 453.0 211.2 L 469.0 211.2 Q 473.0 211.2 473.0 215.2 L 473.0 312.0 Z" fill="#2a78d6"/>
<path d="M 475.0 312.0 L 475.0 245.5 Q 475.0 241.5 479.0 241.5 L 495.0 241.5 Q 499.0 241.5 499.0 245.5 L 499.0 312.0 Z" fill="#898781"/>
<linearGradient id="fade2" gradientUnits="userSpaceOnUse" x1="0" y1="172.0" x2="0" y2="236.0"><stop offset="0" stop-color="#1baf7a" stop-opacity="0"/><stop offset="1" stop-color="#1baf7a" stop-opacity="1"/></linearGradient>
<path d="M 501.0 312.0 L 501.0 176.0 Q 501.0 172.0 505.0 172.0 L 521.0 172.0 Q 525.0 172.0 525.0 176.0 L 525.0 312.0 Z" fill="url(#fade2)"/>
<path d="M 513.0 152.0 l 7 10 l -14 0 z" fill="#1baf7a"/>
<text x="461.0" y="204.2" font-family='system-ui, -apple-system, "Segoe UI", sans-serif' font-size="11" fill="#52514e" text-anchor="middle" stroke="#fcfcfb" stroke-width="3" paint-order="stroke" style="font-variant-numeric:tabular-nums">96 ms</text>
<text x="487.0" y="234.5" font-family='system-ui, -apple-system, "Segoe UI", sans-serif' font-size="11" fill="#52514e" text-anchor="middle" stroke="#fcfcfb" stroke-width="3" paint-order="stroke" style="font-variant-numeric:tabular-nums">67 ms</text>
<text x="513.0" y="144.0" font-family='system-ui, -apple-system, "Segoe UI", sans-serif' font-size="11" fill="#52514e" text-anchor="middle" stroke="#fcfcfb" stroke-width="3" paint-order="stroke" style="font-variant-numeric:tabular-nums">164 ms</text>
<line x1="654.0" y1="312.0" x2="866.0" y2="312.0" stroke="#c3c2b7" stroke-width="1.0"/>
<path d="M 709.0 312.0 L 709.0 228.4 Q 709.0 224.4 713.0 224.4 L 729.0 224.4 Q 733.0 224.4 733.0 228.4 L 733.0 312.0 Z" fill="#2a78d6"/>
<path d="M 735.0 312.0 L 735.0 268.6 Q 735.0 264.6 739.0 264.6 L 755.0 264.6 Q 759.0 264.6 759.0 268.6 L 759.0 312.0 Z" fill="#898781"/>
<path d="M 761.0 312.0 L 761.0 192.0 Q 761.0 188.0 765.0 188.0 L 781.0 188.0 Q 785.0 188.0 785.0 192.0 L 785.0 312.0 Z" fill="#1baf7a"/>
<text x="721.0" y="217.4" font-family='system-ui, -apple-system, "Segoe UI", sans-serif' font-size="11" fill="#52514e" text-anchor="middle" stroke="#fcfcfb" stroke-width="3" paint-order="stroke" style="font-variant-numeric:tabular-nums">624 ms</text>
<text x="747.0" y="257.6" font-family='system-ui, -apple-system, "Segoe UI", sans-serif' font-size="11" fill="#52514e" text-anchor="middle" stroke="#fcfcfb" stroke-width="3" paint-order="stroke" style="font-variant-numeric:tabular-nums">337 ms</text>
<text x="773.0" y="181.0" font-family='system-ui, -apple-system, "Segoe UI", sans-serif' font-size="11" fill="#52514e" text-anchor="middle" stroke="#fcfcfb" stroke-width="3" paint-order="stroke" style="font-variant-numeric:tabular-nums">882 ms</text>
<text x="116.0" y="452.0" font-family='system-ui, -apple-system, "Segoe UI", sans-serif' font-size="12" fill="#52514e" text-anchor="end" font-weight="600">amd64</text>
<text x="116.0" y="468.0" font-family='system-ui, -apple-system, "Segoe UI", sans-serif' font-size="11" fill="#898781" text-anchor="end">AMD Ryzen 7 5700G</text>
<line x1="134.0" y1="522.0" x2="346.0" y2="522.0" stroke="#c3c2b7" stroke-width="1.0"/>
<path d="M 189.0 522.0 L 189.0 425.2 Q 189.0 421.2 193.0 421.2 L 209.0 421.2 Q 213.0 421.2 213.0 425.2 L 213.0 522.0 Z" fill="#2a78d6"/>
<path d="M 215.0 522.0 L 215.0 457.5 Q 215.0 453.5 219.0 453.5 L 235.0 453.5 Q 239.0 453.5 239.0 457.5 L 239.0 522.0 Z" fill="#898781"/>
<linearGradient id="fade3" gradientUnits="userSpaceOnUse" x1="0" y1="382.0" x2="0" y2="446.0"><stop offset="0" stop-color="#1baf7a" stop-opacity="0"/><stop offset="1" stop-color="#1baf7a" stop-opacity="1"/></linearGradient>
<path d="M 241.0 522.0 L 241.0 386.0 Q 241.0 382.0 245.0 382.0 L 261.0 382.0 Q 265.0 382.0 265.0 386.0 L 265.0 522.0 Z" fill="url(#fade3)"/>
<path d="M 253.0 362.0 l 7 10 l -14 0 z" fill="#1baf7a"/>
<path d="M 267.0 522.0 L 267.0 434.9 Q 267.0 430.9 271.0 430.9 L 287.0 430.9 Q 291.0 430.9 291.0 434.9 L 291.0 522.0 Z" fill="#c2456f"/>
<text x="201.0" y="414.2" font-family='system-ui, -apple-system, "Segoe UI", sans-serif' font-size="11" fill="#52514e" text-anchor="middle" stroke="#fcfcfb" stroke-width="3" paint-order="stroke" style="font-variant-numeric:tabular-nums">1.7 s</text>
<text x="227.0" y="446.5" font-family='system-ui, -apple-system, "Segoe UI", sans-serif' font-size="11" fill="#52514e" text-anchor="middle" stroke="#fcfcfb" stroke-width="3" paint-order="stroke" style="font-variant-numeric:tabular-nums">1.2 s</text>
<text x="253.0" y="354.0" font-family='system-ui, -apple-system, "Segoe UI", sans-serif' font-size="11" fill="#52514e" text-anchor="middle" stroke="#fcfcfb" stroke-width="3" paint-order="stroke" style="font-variant-numeric:tabular-nums">4.0 s</text>
<text x="279.0" y="423.9" font-family='system-ui, -apple-system, "Segoe UI", sans-serif' font-size="11" fill="#52514e" text-anchor="middle" stroke="#fcfcfb" stroke-width="3" paint-order="stroke" style="font-variant-numeric:tabular-nums">1.6 s</text>
<line x1="394.0" y1="522.0" x2="606.0" y2="522.0" stroke="#c3c2b7" stroke-width="1.0"/>
<path d="M 449.0 522.0 L 449.0 425.2 Q 449.0 421.2 453.0 421.2 L 469.0 421.2 Q 473.0 421.2 473.0 425.2 L 473.0 522.0 Z" fill="#2a78d6"/>
<path d="M 475.0 522.0 L 475.0 465.2 Q 475.0 461.2 479.0 461.2 L 495.0 461.2 Q 499.0 461.2 499.0 465.2 L 499.0 522.0 Z" fill="#898781"/>
<linearGradient id="fade4" gradientUnits="userSpaceOnUse" x1="0" y1="382.0" x2="0" y2="446.0"><stop offset="0" stop-color="#1baf7a" stop-opacity="0"/><stop offset="1" stop-color="#1baf7a" stop-opacity="1"/></linearGradient>
<path d="M 501.0 522.0 L 501.0 386.0 Q 501.0 382.0 505.0 382.0 L 521.0 382.0 Q 525.0 382.0 525.0 386.0 L 525.0 522.0 Z" fill="url(#fade4)"/>
<path d="M 513.0 362.0 l 7 10 l -14 0 z" fill="#1baf7a"/>
<text x="461.0" y="414.2" font-family='system-ui, -apple-system, "Segoe UI", sans-serif' font-size="11" fill="#52514e" text-anchor="middle" stroke="#fcfcfb" stroke-width="3" paint-order="stroke" style="font-variant-numeric:tabular-nums">124 ms</text>
<text x="487.0" y="454.2" font-family='system-ui, -apple-system, "Segoe UI", sans-serif' font-size="11" fill="#52514e" text-anchor="middle" stroke="#fcfcfb" stroke-width="3" paint-order="stroke" style="font-variant-numeric:tabular-nums">75 ms</text>
<text x="513.0" y="354.0" font-family='system-ui, -apple-system, "Segoe UI", sans-serif' font-size="11" fill="#52514e" text-anchor="middle" stroke="#fcfcfb" stroke-width="3" paint-order="stroke" style="font-variant-numeric:tabular-nums">294 ms</text>
<line x1="654.0" y1="522.0" x2="866.0" y2="522.0" stroke="#c3c2b7" stroke-width="1.0"/>
<path d="M 709.0 522.0 L 709.0 462.6 Q 709.0 458.6 713.0 458.6 L 729.0 458.6 Q 733.0 458.6 733.0 462.6 L 733.0 522.0 Z" fill="#2a78d6"/>
<path d="M 735.0 522.0 L 735.0 489.2 Q 735.0 485.2 739.0 485.2 L 755.0 485.2 Q 759.0 485.2 759.0 489.2 L 759.0 522.0 Z" fill="#898781"/>
<path d="M 761.0 522.0 L 761.0 402.0 Q 761.0 398.0 765.0 398.0 L 781.0 398.0 Q 785.0 398.0 785.0 402.0 L 785.0 522.0 Z" fill="#1baf7a"/>
<text x="721.0" y="451.6" font-family='system-ui, -apple-system, "Segoe UI", sans-serif' font-size="11" fill="#52514e" text-anchor="middle" stroke="#fcfcfb" stroke-width="3" paint-order="stroke" style="font-variant-numeric:tabular-nums">821 ms</text>
<text x="747.0" y="478.2" font-family='system-ui, -apple-system, "Segoe UI", sans-serif' font-size="11" fill="#52514e" text-anchor="middle" stroke="#fcfcfb" stroke-width="3" paint-order="stroke" style="font-variant-numeric:tabular-nums">477 ms</text>
<text x="773.0" y="391.0" font-family='system-ui, -apple-system, "Segoe UI", sans-serif' font-size="11" fill="#52514e" text-anchor="middle" stroke="#fcfcfb" stroke-width="3" paint-order="stroke" style="font-variant-numeric:tabular-nums">1.6 s</text>
<text x="40.0" y="550.0" font-family='system-ui, -apple-system, "Segoe UI", sans-serif' font-size="12" fill="#898781" text-anchor="start">Each panel has its own scale, so compare bars within a panel and read the labels across panels. A bar that fades out with an</text>
<text x="40.0" y="566.0" font-family='system-ui, -apple-system, "Segoe UI", sans-serif' font-size="12" fill="#898781" text-anchor="start">arrow runs off the top of its panel. wasm is libwebp compiled to WebAssembly: that gap is the cost of dropping cgo. nativewebp</text>
<text x="40.0" y="582.0" font-family='system-ui, -apple-system, "Segoe UI", sans-serif' font-size="12" fill="#898781" text-anchor="start">encodes VP8L only, so it has a bar in the lossless panel alone.</text>
</svg>
