<svg xmlns="http://www.w3.org/2000/svg" width="900" height="470" viewBox="0 0 900 470" role="img">
<rect width="900" height="470" fill="#1a1a19"/>
<text x="40.0" y="34.0" font-family='system-ui, -apple-system, "Segoe UI", sans-serif' font-size="19" fill="#ffffff" text-anchor="start" font-weight="600">Size and quality against libwebp</text>
<text x="40.0" y="56.0" font-family='system-ui, -apple-system, "Segoe UI", sans-serif' font-size="13" fill="#c3c2b7" text-anchor="start">Each point is one test image, encoded at quality 90. Up and to the left is better: smaller file, higher PSNR.</text>
<circle cx="45.0" cy="80.0" r="5.0" fill="#3987e5"/>
<text x="56.0" y="84.0" font-family='system-ui, -apple-system, "Segoe UI", sans-serif' font-size="12" fill="#c3c2b7" text-anchor="start">webp-go-pure</text>
<circle cx="169.5" cy="80.0" r="5.0" fill="#898781"/>
<text x="180.5" y="84.0" font-family='system-ui, -apple-system, "Segoe UI", sans-serif' font-size="12" fill="#c3c2b7" text-anchor="start">libwebp and wasm (reference, at the crosshair)</text>
<line x1="78.0" y1="330.7" x2="435.0" y2="330.7" stroke="#2c2c2a" stroke-width="1.0"/>
<text x="68.0" y="334.7" font-family='system-ui, -apple-system, "Segoe UI", sans-serif' font-size="12" fill="#898781" text-anchor="end" style="font-variant-numeric:tabular-nums">-1</text>
<line x1="78.0" y1="227.4" x2="435.0" y2="227.4" stroke="#2c2c2a" stroke-width="1.0"/>
<text x="68.0" y="231.4" font-family='system-ui, -apple-system, "Segoe UI", sans-serif' font-size="12" fill="#898781" text-anchor="end" style="font-variant-numeric:tabular-nums">+0</text>
<line x1="78.0" y1="124.2" x2="435.0" y2="124.2" stroke="#2c2c2a" stroke-width="1.0"/>
<text x="68.0" y="128.2" font-family='system-ui, -apple-system, "Segoe UI", sans-serif' font-size="12" fill="#898781" text-anchor="end" style="font-variant-numeric:tabular-nums">+1</text>
<text x="131.9" y="392.0" font-family='system-ui, -apple-system, "Segoe UI", sans-serif' font-size="12" fill="#898781" text-anchor="middle" style="font-variant-numeric:tabular-nums">0.9</text>
<text x="235.1" y="392.0" font-family='system-ui, -apple-system, "Segoe UI", sans-serif' font-size="12" fill="#898781" text-anchor="middle" style="font-variant-numeric:tabular-nums">1.0</text>
<text x="338.2" y="392.0" font-family='system-ui, -apple-system, "Segoe UI", sans-serif' font-size="12" fill="#898781" text-anchor="middle" style="font-variant-numeric:tabular-nums">1.1</text>
<line x1="235.1" y1="118.0" x2="235.1" y2="372.0" stroke="#383835" stroke-width="1.0"/>
<line x1="78.0" y1="227.4" x2="435.0" y2="227.4" stroke="#383835" stroke-width="1.0"/>
<circle cx="235.1" cy="227.4" r="7.0" fill="#1a1a19"/>
<circle cx="235.1" cy="227.4" r="5.0" fill="#898781"/>
<text x="256.5" y="102.0" font-family='system-ui, -apple-system, "Segoe UI", sans-serif' font-size="14" fill="#ffffff" text-anchor="middle" font-weight="600">lossy-fast</text>
<circle cx="317.7" cy="274.9" r="7.0" fill="#1a1a19"/>
<circle cx="317.7" cy="274.9" r="5.0" fill="#3987e5"/>
<circle cx="310.9" cy="289.4" r="7.0" fill="#1a1a19"/>
<circle cx="310.9" cy="289.4" r="5.0" fill="#3987e5"/>
<circle cx="139.9" cy="303.9" r="7.0" fill="#1a1a19"/>
<circle cx="139.9" cy="303.9" r="5.0" fill="#3987e5"/>
<circle cx="179.8" cy="264.6" r="7.0" fill="#1a1a19"/>
<circle cx="179.8" cy="264.6" r="5.0" fill="#3987e5"/>
<circle cx="329.8" cy="196.5" r="7.0" fill="#1a1a19"/>
<circle cx="329.8" cy="196.5" r="5.0" fill="#3987e5"/>
<line x1="509.0" y1="330.7" x2="866.0" y2="330.7" stroke="#2c2c2a" stroke-width="1.0"/>
<line x1="509.0" y1="227.4" x2="866.0" y2="227.4" stroke="#2c2c2a" stroke-width="1.0"/>
<line x1="509.0" y1="124.2" x2="866.0" y2="124.2" stroke="#2c2c2a" stroke-width="1.0"/>
<text x="562.9" y="392.0" font-family='system-ui, -apple-system, "Segoe UI", sans-serif' font-size="12" fill="#898781" text-anchor="middle" style="font-variant-numeric:tabular-nums">0.9</text>
<text x="666.1" y="392.0" font-family='system-ui, -apple-system, "Segoe UI", sans-serif' font-size="12" fill="#898781" text-anchor="middle" style="font-variant-numeric:tabular-nums">1.0</text>
<text x="769.2" y="392.0" font-family='system-ui, -apple-system, "Segoe UI", sans-serif' font-size="12" fill="#898781" text-anchor="middle" style="font-variant-numeric:tabular-nums">1.1</text>
<line x1="666.1" y1="118.0" x2="666.1" y2="372.0" stroke="#383835" stroke-width="1.0"/>
<line x1="509.0" y1="227.4" x2="866.0" y2="227.4" stroke="#383835" stroke-width="1.0"/>
<circle cx="666.1" cy="227.4" r="7.0" fill="#1a1a19"/>
<circle cx="666.1" cy="227.4" r="5.0" fill="#898781"/>
<text x="687.5" y="102.0" font-family='system-ui, -apple-system, "Segoe UI", sans-serif' font-size="14" fill="#ffffff" text-anchor="middle" font-weight="600">lossy-slow</text>
<circle cx="761.6" cy="241.9" r="7.0" fill="#1a1a19"/>
<circle cx="761.6" cy="241.9" r="5.0" fill="#3987e5"/>
<circle cx="720.4" cy="284.2" r="7.0" fill="#1a1a19"/>
<circle cx="720.4" cy="284.2" r="5.0" fill="#3987e5"/>
<circle cx="804.1" cy="271.8" r="7.0" fill="#1a1a19"/>
<circle cx="804.1" cy="271.8" r="5.0" fill="#3987e5"/>
<circle cx="689.8" cy="268.7" r="7.0" fill="#1a1a19"/>
<circle cx="689.8" cy="268.7" r="5.0" fill="#3987e5"/>
<circle cx="734.0" cy="169.6" r="7.0" fill="#1a1a19"/>
<circle cx="734.0" cy="169.6" r="5.0" fill="#3987e5"/>
<text x="472.0" y="416.0" font-family='system-ui, -apple-system, "Segoe UI", sans-serif' font-size="12" fill="#c3c2b7" text-anchor="middle">output size relative to libwebp  (1.0 = same size, left = smaller)</text>
<text transform="translate(26,245.0) rotate(-90)" font-family='system-ui, -apple-system, "Segoe UI", sans-serif' font-size="12.5" fill="#c3c2b7" text-anchor="middle">PSNR vs libwebp (dB)</text>
<text x="40.0" y="442.0" font-family='system-ui, -apple-system, "Segoe UI", sans-serif' font-size="12" fill="#898781" text-anchor="start">lossy-fast is each encoder's fastest setting and lossy-slow its slowest, which are not the same amount of work across encoders;</text>
<text x="40.0" y="458.0" font-family='system-ui, -apple-system, "Segoe UI", sans-serif' font-size="12" fill="#898781" text-anchor="start">the effort sweep figure shows every setting in between.</text>
</svg>
